<svg width="34" height="34" viewBox="0 0 34 34" fill="none" xmlns="http://www.w3.org/2000/svg">
<path d="M12 15.3333V8.66667M2 25.3333V30.3333C2 30.7754 2.17559 31.1993 2.48816 31.5118C2.80072 31.8244 3.22464 32 3.66667 32H30.3333C30.7754 32 31.1993 31.8244 31.5118 31.5118C31.8244 31.1993 32 30.7754 32 30.3333V25.3333M2 25.3333L4.86667 16.4667C4.98263 16.1217 5.20833 15.8242 5.50928 15.6195C5.81023 15.4149 6.16989 15.3144 6.53333 15.3333H27.4667C27.8161 15.3324 28.1569 15.4414 28.441 15.6447C28.7252 15.8481 28.9382 16.1356 29.05 16.4667L32 25.3333M2 25.3333H32M18.6667 3.66667V7C18.6667 7.44203 18.4911 7.86595 18.1785 8.17851C17.8659 8.49107 17.442 8.66667 17 8.66667H7C6.55797 8.66667 6.13405 8.49107 5.82149 8.17851C5.50893 7.86595 5.33333 7.44203 5.33333 7V3.66667C5.33333 3.22464 5.50893 2.80072 5.82149 2.48816C6.13405 2.17559 6.55797 2 7 2H17C17.442 2 17.8659 2.17559 18.1785 2.48816C18.4911 2.80072 18.6667 3.22464 18.6667 3.66667Z" stroke="#F3F0F0" stroke-width="3" stroke-linecap="round" stroke-linejoin="round"/>
</svg>
