<svg width="40" height="40" viewBox="0 0 40 40" fill="none" xmlns="http://www.w3.org/2000/svg">
<path d="M31.6667 15V28.3333C31.6667 31.476 31.6667 33.0473 30.6904 34.0237C29.714 35 28.1427 35 25 35H23.3334H16.6667H15C11.8573 35 10.286 35 9.30969 34.0237C8.33337 33.0473 8.33337 31.476 8.33337 28.3333V15" stroke="#F3F0F0" stroke-width="4" stroke-linejoin="round"/>
<path d="M5 18.3333L12.5 11.6667L17.7855 6.96848C19.0483 5.84587 20.9517 5.84587 22.2145 6.96848L27.5 11.6667L35 18.3333" stroke="#F3F0F0" stroke-width="4" stroke-linecap="round" stroke-linejoin="round"/>
<path d="M16.6666 35V28.3333C16.6666 26.4923 18.159 25 20 25C21.841 25 23.3333 26.4923 23.3333 28.3333V35" stroke="#F3F0F0" stroke-width="4" stroke-linecap="round" stroke-linejoin="round"/>
</svg>
