<svg width="36" height="36" viewBox="0 0 36 36" fill="none" xmlns="http://www.w3.org/2000/svg">
<path d="M16.3262 23.016C16.1238 23.2189 15.9631 23.4601 15.8533 23.7257C15.7435 23.9913 15.6868 24.2762 15.6864 24.5639C15.686 24.8517 15.7419 25.1367 15.851 25.4026C15.96 25.6685 16.1201 25.9102 16.3219 26.1136C16.5238 26.3171 16.7635 26.4784 17.0273 26.5883C17.2911 26.6983 17.5738 26.7547 17.8592 26.7543C18.1447 26.7539 18.4273 26.6967 18.6908 26.586C18.9543 26.4753 19.1935 26.3133 19.3948 26.1093L25.905 19.5468C26.1065 19.3437 26.2664 19.1026 26.3755 18.8373C26.4846 18.5719 26.5407 18.2874 26.5407 18.0002C26.5407 17.7129 26.4846 17.4285 26.3755 17.1631C26.2664 16.8977 26.1065 16.6566 25.905 16.4535L19.3948 9.89104C18.9875 9.48273 18.4362 9.2539 17.8617 9.2547C17.2873 9.25551 16.7366 9.48589 16.3305 9.89534C15.9243 10.3048 15.6957 10.8599 15.6949 11.4389C15.6941 12.018 15.9211 12.5737 16.3262 12.9843L19.132 15.8127H2.67006C2.09453 15.8127 1.54256 16.0431 1.1356 16.4534C0.728631 16.8636 0.5 17.42 0.5 18.0002C0.5 18.5803 0.728631 19.1367 1.1356 19.547C1.54256 19.9572 2.09453 20.1877 2.67006 20.1877H19.132L16.3262 23.016Z" fill="#F3F0F0"/>
<path d="M33.3299 0.5H11.6293C11.3443 0.499837 11.062 0.556308 10.7987 0.666182C10.5353 0.776056 10.296 0.93718 10.0945 1.14034C9.89292 1.3435 9.73308 1.58471 9.62409 1.85019C9.51509 2.11566 9.45907 2.40019 9.45923 2.6875V7.0625C9.45923 7.64266 9.68786 8.19906 10.0948 8.6093C10.5018 9.01953 11.0538 9.25 11.6293 9.25C12.2048 9.25 12.7568 9.01953 13.1638 8.6093C13.5707 8.19906 13.7994 7.64266 13.7994 7.0625V4.875H31.1599V31.125H13.7994V28.9375C13.7994 28.3573 13.5707 27.8009 13.1638 27.3907C12.7568 26.9805 12.2048 26.75 11.6293 26.75C11.0538 26.75 10.5018 26.9805 10.0948 27.3907C9.68786 27.8009 9.45923 28.3573 9.45923 28.9375V33.3125C9.45907 33.5998 9.51509 33.8843 9.62409 34.1498C9.73308 34.4153 9.89292 34.6565 10.0945 34.8597C10.296 35.0628 10.5353 35.2239 10.7987 35.3338C11.062 35.4437 11.3443 35.5002 11.6293 35.5H33.3299C33.6149 35.5002 33.8972 35.4437 34.1606 35.3338C34.4239 35.2239 34.6632 35.0628 34.8647 34.8597C35.0663 34.6565 35.2261 34.4153 35.3351 34.1498C35.4441 33.8843 35.5001 33.5998 35.5 33.3125V2.6875C35.5001 2.40019 35.4441 2.11566 35.3351 1.85019C35.2261 1.58471 35.0663 1.3435 34.8647 1.14034C34.6632 0.93718 34.4239 0.776056 34.1606 0.666182C33.8972 0.556308 33.6149 0.499837 33.3299 0.5Z" fill="#F3F0F0"/>
</svg>
