<svg width="42" height="42" viewBox="0 0 42 42" fill="none" xmlns="http://www.w3.org/2000/svg">
<path d="M39.7357 19.529H31.6322V2.471C31.6322 1.65864 31.0661 1 30.3679 1H11.6321C10.9338 1 10.3678 1.65864 10.3678 2.471V19.529H2.2643C1.56609 19.529 1 20.1876 1 21V39.529C1 40.3414 1.56609 41 2.2643 41H21H39.7357C40.4339 41 41 40.3414 41 39.529V21C41 20.1877 40.434 19.529 39.7357 19.529ZM19.7357 38.0581H3.52859V22.4711H11.6321H19.7357V38.0581ZM12.8965 19.529V3.94209H19.7358V5.91539C19.7358 6.72783 20.3019 7.38638 21.0001 7.38638C21.6983 7.38638 22.2644 6.72774 22.2644 5.91539V3.94209H29.1037V19.529H21.0001H12.8965V19.529ZM38.4715 38.0581H38.4714H22.2644V22.4711H30.368H38.4715V38.0581Z" fill="white" stroke="white"/>
</svg>
