<svg width="36" height="36" viewBox="0 0 36 36" fill="none" xmlns="http://www.w3.org/2000/svg">
<path d="M19.9961 1.5L20.2236 1.50879C20.6772 1.54447 21.1195 1.68672 21.5107 1.92773L21.7021 2.05566L21.8828 2.20117C22.2322 2.5051 22.5046 2.89358 22.665 3.33691L22.7354 3.5625L22.7363 3.56445L23.4756 6.36523C24.32 6.71946 25.1249 7.15404 25.877 7.66504L28.918 6.84961L28.9238 6.84863L29.1455 6.79883C29.5913 6.7177 30.0516 6.74107 30.4873 6.86816L30.7031 6.94043L30.9131 7.03027C31.3253 7.2251 31.6898 7.51721 31.9678 7.88867L32.0996 8.08105L32.1055 8.08984L34.1006 11.3398V11.3408L34.2148 11.5469C34.425 11.9671 34.5233 12.4355 34.4951 12.9082L34.4707 13.1445C34.3767 13.774 34.0633 14.3388 33.6035 14.7568V14.7578L31.3965 16.7598C31.4412 17.1678 31.4686 17.5776 31.4717 17.9883V18.0117C31.4686 18.4218 31.4411 18.8308 31.3965 19.2383L33.6016 21.2393H33.6025L33.7676 21.4033C34.0844 21.7436 34.314 22.1607 34.4248 22.6201L34.4697 22.8535L34.4941 23.0908C34.5268 23.6423 34.387 24.1874 34.0986 24.6572L34.0996 24.6582L32.1045 27.9082L32.1035 27.9092C31.8769 28.278 31.5688 28.5833 31.21 28.8086L31.0527 28.9004C30.6271 29.131 30.1507 29.2495 29.6709 29.249H29.666C29.4176 29.248 29.1696 29.216 28.9287 29.1533L28.918 29.1504L25.877 28.334C25.1261 28.8446 24.3235 29.2804 23.4805 29.6348L22.7354 32.4375C22.5927 32.9747 22.2902 33.4444 21.8828 33.7988L21.7021 33.9443C21.2049 34.3095 20.6041 34.4998 19.9961 34.5H16.001C15.4703 34.4985 14.9452 34.3523 14.4902 34.0713L14.2998 33.9424C13.803 33.5768 13.4327 33.0523 13.2695 32.4404V32.4395L12.5244 29.6367C11.6791 29.2822 10.8738 28.8466 10.1211 28.335L7.08105 29.1514L7.07031 29.1543C6.82935 29.217 6.58146 29.249 6.33301 29.25H6.32812C5.90826 29.2504 5.49131 29.1596 5.1084 28.9824L4.94629 28.9014C4.57336 28.6993 4.24643 28.415 3.99707 28.0645L3.89551 27.9102L1.89941 24.6602V24.6592C1.57004 24.1221 1.4361 23.4859 1.53027 22.8555L1.5752 22.6221C1.70438 22.0868 1.99441 21.6089 2.39648 21.2432L2.39746 21.2422L4.60254 19.2393C4.5579 18.8315 4.53141 18.422 4.52832 18.0117V17.9883L4.54395 17.4678C4.5559 17.2319 4.57682 16.9966 4.60254 16.7617L2.39746 14.7598V14.7588C1.93714 14.3406 1.62342 13.7755 1.5293 13.1455C1.43509 12.5144 1.57023 11.8772 1.90039 11.3398H1.89941L3.89551 8.08984L3.90137 8.08008L4.0332 7.8877C4.35763 7.4548 4.79996 7.13011 5.29785 6.94141L5.5127 6.86914C5.94809 6.74199 6.40796 6.71811 6.85352 6.79883L7.0752 6.84766L7.08301 6.84961L10.123 7.66504C10.8736 7.15461 11.6759 6.71852 12.5186 6.36426L13.2646 3.5625L13.3359 3.33691C13.5231 2.81972 13.8623 2.37622 14.2988 2.05566L14.4893 1.92773C14.9459 1.64636 15.4726 1.50014 16.0049 1.5H19.9961ZM19.4922 14.7783C18.8712 14.5366 18.192 14.4501 17.5234 14.5273L17.2383 14.5703C16.5745 14.6944 15.9666 14.9764 15.4707 15.3779L15.2656 15.5576C14.7376 16.0538 14.3889 16.6742 14.249 17.335C14.1093 17.9949 14.1802 18.6805 14.457 19.3086L14.5703 19.541C14.856 20.0739 15.2902 20.5403 15.8418 20.8867L16.084 21.0273C16.6613 21.3343 17.3214 21.5 18 21.5C19.0423 21.5 20.025 21.11 20.7354 20.4424L20.8643 20.3154C21.4885 19.6678 21.8213 18.841 21.8213 18C21.8213 17.4132 21.6594 16.8313 21.3457 16.3105L21.2021 16.0918C20.7932 15.5166 20.2014 15.0544 19.4922 14.7783Z" stroke="#F3F0F0" stroke-width="3"/>
</svg>
